<mxfile host="app.diagrams.net" modified="2023-05-28T09:21:05.531Z" agent="Mozilla/5.0 (Macintosh; Intel Mac OS X 10.15; rv:109.0) Gecko/20100101 Firefox/114.0" etag="HjU7mQkwmRd8_dt2YJdV" version="21.3.4">
  <diagram name="Page-1" id="CGRvKwKGDUcNTeZD_0Uu">
    <mxGraphModel dx="954" dy="617" grid="1" gridSize="10" guides="1" tooltips="1" connect="1" arrows="1" fold="1" page="1" pageScale="1" pageWidth="850" pageHeight="1100" math="0" shadow="0">
      <root>
        <mxCell id="0" />
        <mxCell id="1" parent="0" />
        <mxCell id="y73szksVFoZV5lBGKTuy-7" value="" style="edgeStyle=orthogonalEdgeStyle;rounded=0;orthogonalLoop=1;jettySize=auto;html=1;" edge="1" parent="1" source="y73szksVFoZV5lBGKTuy-1" target="y73szksVFoZV5lBGKTuy-2">
          <mxGeometry relative="1" as="geometry" />
        </mxCell>
        <mxCell id="y73szksVFoZV5lBGKTuy-1" value="Create Wallet Account" style="rounded=0;whiteSpace=wrap;html=1;" vertex="1" parent="1">
          <mxGeometry x="140" y="140" width="120" height="60" as="geometry" />
        </mxCell>
        <mxCell id="y73szksVFoZV5lBGKTuy-8" value="" style="edgeStyle=orthogonalEdgeStyle;rounded=0;orthogonalLoop=1;jettySize=auto;html=1;" edge="1" parent="1" source="y73szksVFoZV5lBGKTuy-2" target="y73szksVFoZV5lBGKTuy-3">
          <mxGeometry relative="1" as="geometry" />
        </mxCell>
        <mxCell id="y73szksVFoZV5lBGKTuy-2" value="Create Smart Contract" style="rounded=0;whiteSpace=wrap;html=1;" vertex="1" parent="1">
          <mxGeometry x="310" y="140" width="120" height="60" as="geometry" />
        </mxCell>
        <mxCell id="y73szksVFoZV5lBGKTuy-9" value="" style="edgeStyle=orthogonalEdgeStyle;rounded=0;orthogonalLoop=1;jettySize=auto;html=1;" edge="1" parent="1" source="y73szksVFoZV5lBGKTuy-3" target="y73szksVFoZV5lBGKTuy-4">
          <mxGeometry relative="1" as="geometry" />
        </mxCell>
        <mxCell id="y73szksVFoZV5lBGKTuy-3" value="Prepare Metadata with IPFS" style="rounded=0;whiteSpace=wrap;html=1;" vertex="1" parent="1">
          <mxGeometry x="480" y="140" width="120" height="60" as="geometry" />
        </mxCell>
        <mxCell id="y73szksVFoZV5lBGKTuy-10" value="" style="edgeStyle=orthogonalEdgeStyle;rounded=0;orthogonalLoop=1;jettySize=auto;html=1;" edge="1" parent="1" source="y73szksVFoZV5lBGKTuy-4" target="y73szksVFoZV5lBGKTuy-5">
          <mxGeometry relative="1" as="geometry" />
        </mxCell>
        <mxCell id="y73szksVFoZV5lBGKTuy-4" value="Mint NFT" style="rounded=0;whiteSpace=wrap;html=1;" vertex="1" parent="1">
          <mxGeometry x="480" y="250" width="120" height="60" as="geometry" />
        </mxCell>
        <mxCell id="y73szksVFoZV5lBGKTuy-11" value="" style="edgeStyle=orthogonalEdgeStyle;rounded=0;orthogonalLoop=1;jettySize=auto;html=1;" edge="1" parent="1" source="y73szksVFoZV5lBGKTuy-5" target="y73szksVFoZV5lBGKTuy-6">
          <mxGeometry relative="1" as="geometry" />
        </mxCell>
        <mxCell id="y73szksVFoZV5lBGKTuy-5" value="Create Unreal Engine 5 Project" style="rounded=0;whiteSpace=wrap;html=1;" vertex="1" parent="1">
          <mxGeometry x="310" y="250" width="120" height="60" as="geometry" />
        </mxCell>
        <mxCell id="y73szksVFoZV5lBGKTuy-6" value="Integrate Smart Contract with Unreal Engine 5" style="rounded=0;whiteSpace=wrap;html=1;" vertex="1" parent="1">
          <mxGeometry x="140" y="250" width="120" height="60" as="geometry" />
        </mxCell>
      </root>
    </mxGraphModel>
  </diagram>
</mxfile>
